<svg width="512" height="512" viewBox="0 0 512 512" fill="none" xmlns="http://www.w3.org/2000/svg">
<path d="M33 135.131L67.5 120.131L90.5 131.131L114 129.131L132.5 115.131L235.5 71.6314L337 81.6314L393.5 118.631L424 126.131L465.5 127.131L479.5 138.131L475 145.631L483.5 152.131L491 177.631L483.5 226.131L491 267.131L483.5 297.631L470.5 322.131L460 347.631L436 369.131L386 398.131L343.5 428.131L286 468.131L206 460.131L144 417.131L111.5 392.131L67.5 369.131L49 347.631V327.631L33 307.631L20 291.631V252.631L33 222.131L24 206.631V159.631L33 135.131Z" fill="#181818"/>
<path fill-rule="evenodd" clip-rule="evenodd" d="M255.288 20.1047C259.908 24.4998 260.782 28.2586 258.399 33.4886L257.194 36.1329L253.328 33.6156C246.475 29.1543 237.814 27.2338 224.908 27.316C218.449 27.3566 211.964 27.8957 210.496 28.5127L207.827 29.6358L211.563 30.6446L215.3 31.6534L209.962 32.4477C199.318 34.0298 179.453 41.666 173.665 46.3995C171.651 48.0478 171.891 48.1097 177.936 47.5065L184.341 46.866L176.334 50.4423C166.452 54.8566 162.506 57.3536 146.242 69.4831C139.168 74.7599 131.034 80.2663 128.168 81.7182C125.302 83.1711 122.957 84.8824 122.957 85.523C122.957 86.1624 123.637 86.4261 124.467 86.1069C125.299 85.7877 127.274 85.8731 128.856 86.2959C131.649 87.0431 131.403 87.3655 120.407 97.3364C114.177 102.985 106.836 109.093 104.092 110.91C99.1869 114.16 99.1559 114.215 102.224 114.289C103.939 114.331 106.241 114.717 107.34 115.15C109.178 115.871 109.117 116.079 106.576 117.744C105.058 118.739 101.844 119.552 99.4346 119.552C94.4523 119.552 82.4584 114.871 73.2818 109.344C69.8955 107.305 66.8914 105.87 66.6064 106.157C66.3214 106.442 66.8733 107.874 67.8341 109.34C68.7938 110.805 69.5795 112.196 69.5795 112.43C69.5795 112.664 67.3025 113.169 64.5183 113.55C56.2181 114.688 43.162 121.89 33.8562 130.465C27.4317 136.384 25.9553 138.258 27.3335 138.741C28.7202 139.227 27.5822 140.721 22.2125 145.464C14.4044 152.362 6.69032 163.292 2.69983 173.113L0 179.757L2.80658 181.802C6.25049 184.31 9.89189 191.33 12.88 201.219C14.1215 205.33 16.5779 211.291 18.3383 214.467L21.5388 220.24L15.7122 232.081C12.5074 238.593 9.1286 246.934 8.2041 250.617C1.54367 277.152 8.53397 300.168 30.5404 324.159C35.0487 329.074 37.5876 332.706 37.5531 334.331C37.1837 351.744 57.6262 367.491 57.6262 367.491L90.5633 388.5C101.611 398.924 101.5 399 114 411.5L115.5 413L117.5 415L119.5 416.5L122 419L126 423.5C130.5 427.5 130.5 427.5 130.5 427.5L136.5 431C136.5 431 149.743 443.38 148.831 437.867C146.711 425.061 157.659 451.674 158.661 443.651L159.439 437.422L164.892 445.063C170.05 452.292 170.413 452.58 171.584 450.393C172.74 448.232 173.152 448.635 177.833 456.491C180.59 461.118 183.771 466.105 184.903 467.573C186.792 470.02 186.966 470.064 187.002 468.106C187.104 462.732 188.599 462.887 197.818 469.221C202.736 472.601 209.402 476.554 212.631 478.007C220.981 481.762 236.37 486.891 237.1 486.161C237.44 485.822 236.148 484.143 234.232 482.43C231.493 479.984 231.162 479.316 232.688 479.316C236.704 479.316 244.106 485.235 246.817 490.615C248.271 493.501 249.556 496.038 249.672 496.251C249.788 496.465 252.572 493.735 255.859 490.184C261.408 484.19 268.878 479.309 272.484 479.321C273.376 479.323 272.499 480.746 270.378 482.734C268.377 484.608 267.232 486.307 267.833 486.507C270.27 487.319 289.54 480.11 298.035 475.209C303.025 472.328 307.311 470.155 307.558 470.378C307.805 470.601 306.883 471.98 305.508 473.444C301.775 477.417 303.396 477.578 309.321 473.82C317.031 468.93 325.141 461.72 329.748 455.66L333.798 450.333L334.331 454.762L334.865 459.191L338.988 453.768C341.254 450.785 344.681 445.406 346.601 441.813L350.09 435.279L351.552 439.416C353.535 445.029 366.519 408.868 363.887 427.5C362.728 435.714 378 420.5 378 420.5C378.334 420.834 378 420.5 391.761 410.646C409.444 400.027 404.624 398.034 420.217 386.5C435.639 375.092 436.5 375 451.577 369.033L461.5 361.355L468.268 351.581L473.098 337.765L476.857 324.365C489.024 312.879 498.296 297.917 501.396 284.766C503.472 275.963 503.424 259.559 501.294 249.106C500.353 244.494 497.648 235.968 495.281 230.162L490.98 219.605L493.394 214.682C494.721 211.975 497.176 205.735 498.85 200.817C502.336 190.572 506.262 183.368 509.654 180.992L512 179.348L507.857 171.601C500.225 157.332 492.321 147.322 485.222 142.935C482.47 141.234 481.854 140.346 482.711 139.313C483.571 138.276 481.61 135.855 474.575 129.273C464.827 120.153 454.381 113.957 446.51 112.628L442.192 111.898L443.853 108.687C444.766 106.921 445.29 105.252 445.018 104.98C444.745 104.707 441.882 106.173 438.656 108.236C431.396 112.881 415.496 119.552 411.687 119.552C410.129 119.552 407.34 118.471 405.488 117.15L402.121 114.748L406.925 114.214L411.728 113.681L405.857 110.321C400.905 107.487 373.788 82.8231 377.903 84.8952C378.675 85.2838 381.041 85.2764 383.161 84.8792L387.015 84.1565L378.085 79.3846C367.231 73.5856 356.614 66.1587 350.878 60.3545C348.475 57.9226 342.174 53.7997 336.466 50.9259L326.325 45.8187L331.662 46.4892L337 47.1596L332.851 44.2526C324.076 38.1057 298.92 28.138 286.841 26.0211C282.454 25.2524 282.599 25.0421 288.961 22.9487C290.847 22.3274 290.688 22.0733 287.587 20.7591C281.557 18.2045 268.595 16 259.603 16H250.973L255.288 20.1047ZM182.74 109.994C157.753 116.446 136.085 134.548 125.296 157.986C118.357 173.061 117.138 178.827 117.17 196.416C117.197 211.679 117.26 212.085 121.679 225.557C127.178 242.325 127.283 246.111 122.567 257.593C117.195 270.675 116.341 275.494 117.463 286.392C118.182 293.373 119.271 297.463 121.726 302.405C124.929 308.851 134.546 320.825 133.057 316.515C132.652 315.34 131.35 311.737 130.165 308.508C128.98 305.279 127.77 299.148 127.477 294.883C127.037 288.481 126.69 287.342 125.485 288.342C124.675 289.013 124.024 289.096 124.024 288.525C124.024 287.388 126.502 279.216 127.794 276.092C128.488 274.414 128.257 274.214 126.328 274.827C124.433 275.428 124.161 275.219 124.754 273.615C125.146 272.55 126.584 270.192 127.949 268.375C131.019 264.286 131.093 263.241 128.203 264.788C124.652 266.688 124.582 265.158 128.019 260.784C129.771 258.555 132.009 255.162 132.99 253.242L134.776 249.753L138.741 252.848C140.922 254.551 144.94 257.22 147.67 258.778L152.633 261.613L154.728 258.949C155.88 257.485 157.421 254.843 158.151 253.082C159.467 249.902 159.398 249.8 148.831 239.427C137.372 228.177 133.122 221.28 129.919 208.735C124.713 188.342 132.11 162.621 148.171 145.274C156.856 135.893 164.789 130.644 176.287 126.667C194.133 120.495 216.905 123.103 240.825 134.057C246.75 136.77 252.557 139.21 253.731 139.481C254.915 139.753 260.471 137.832 266.197 135.17C283.402 127.175 292.542 124.671 306.65 124.085C316.878 123.661 320.547 123.961 328.001 125.835C349.15 131.149 364.012 143.03 373.935 162.552C388.987 192.167 383.058 222.413 357.918 244.281C354.339 247.393 351.412 250.355 351.412 250.863C351.412 251.371 352.923 254.216 354.77 257.187L358.126 262.586L361.975 260.294C364.092 259.034 368.072 256.155 370.819 253.898C376.107 249.553 377.033 249.109 377.033 250.919C377.033 251.538 379.026 254.98 381.462 258.567C384.711 263.351 385.35 264.873 383.864 264.277C382.749 263.831 381.237 263.22 380.503 262.921C378.392 262.058 378.948 264.209 381.412 266.439C383.564 268.386 386.641 273.419 386.641 274.992C386.641 275.407 385.68 274.875 384.506 273.813C381.975 271.523 381.691 273.138 383.88 277.372C385.81 281.102 387.34 289.67 385.582 286.89C383.433 283.494 382.371 284.94 382.371 291.26C382.371 297.689 380.14 305.599 375.984 313.897L373.604 318.65L379.111 313.312C386.039 306.596 391.114 296.607 391.761 288.412C392.025 285.08 392.692 281.786 393.245 281.094C394.801 279.144 392.455 268.616 388.051 257.799C383.095 245.621 383.087 241.435 388.003 229.509C393.804 215.437 395.603 205.607 394.828 192.22C394.071 179.16 392.158 171.251 387.102 160.29C370.304 123.868 329.366 102.132 291.166 109.352C280.099 111.443 271.597 114.688 261.556 120.654L254.399 124.906L248.194 121.15C228.615 109.303 202.595 104.867 182.74 109.994ZM48.7624 131.671C43.1343 133.129 34.9163 136.989 33.885 138.658C33.5487 139.201 35.3177 139.965 37.8157 140.352C46.5856 141.717 46.5493 141.577 39.8227 148.17C31.8364 155.997 29.5796 162.077 29.6447 175.598C29.7269 192.691 35.892 206.635 48.6375 218.559C55.1335 224.635 66.5808 231.392 75.9848 234.701L79.7212 236.016L71.0709 240.097C58.002 246.261 50.5462 253.851 46.8685 264.731L45.3035 269.358L43.5314 266.653C39.5558 260.585 37.3898 251.846 37.7442 243.298C37.9332 238.759 37.6802 235.297 37.1837 235.605C36.6873 235.915 34.6846 239.497 32.7342 243.568C26.2723 257.053 25.4386 272.136 30.4326 285.221C32.8111 291.454 39.3765 301.702 40.3608 300.719C40.6639 300.416 40.3981 298.321 39.7715 296.065C38.4616 291.346 38.2353 282.868 39.4213 282.925C39.8622 282.947 41.455 284.593 42.9613 286.582C44.4676 288.57 48.3514 292.358 51.5924 294.998C56.6024 299.079 57.5056 300.362 57.6262 303.564C57.9892 313.227 68.5921 333.297 78.4263 342.936C82.2567 346.691 83.0915 348.007 81.6396 348.007C77.9769 348.007 63.7283 343.611 59.171 341.075C53.7457 338.056 53.3891 339.221 57.67 345.971C63.786 355.616 73.6031 361.811 90.1533 366.473C99.2285 369.028 101.213 368.93 97.7991 366.097C95.806 364.443 92.6973 358.696 93.4104 357.982C93.6858 357.706 96.4679 359.415 99.5915 361.779C102.715 364.143 110.331 368.183 116.515 370.756L127.761 375.435L128.433 361.988C128.804 354.592 129.284 347.849 129.501 347.003C129.719 346.157 129.043 345.279 128.001 345.051C126.647 344.755 125.759 345.635 124.887 348.136L123.668 351.635L119.943 343.683L116.22 335.73L114.971 341.068L113.722 346.406L111.418 341.947C109.199 337.651 105.307 324.702 104.576 319.183L104.221 316.515L102.462 319.717C101.182 322.048 100.551 322.483 100.146 321.319C98.2293 315.819 97.2376 309.863 96.6301 300.202L95.9394 289.228L93.5481 291.475C92.2318 292.711 90.8889 293.291 90.5633 292.765C89.2737 290.679 93.1659 277.27 98.3628 265.895C101.376 259.297 104.644 250.845 105.623 247.113C107.308 240.689 107.301 240.215 105.515 238.24C102.221 234.601 99.4912 225.522 98.3062 214.264C97.545 207.035 96.6259 202.939 95.5818 202.123C94.716 201.446 91.1419 200.387 87.6403 199.77C79.6188 198.357 69.5561 193.885 65.9659 190.138C64.45 188.556 62.2604 185.358 61.0989 183.032L58.9895 178.801L58.9468 182.659C58.8187 194.223 64.7201 209.023 71.6431 214.507C73.9117 216.304 77.8573 218.766 80.413 219.979L85.059 222.186L79.9945 221.599C69.3895 220.369 56.5064 210.776 51.7173 200.543C44.7601 185.677 46.9337 166.378 56.7476 155.871C62.2273 150.005 68.8547 152.124 80.9447 163.608C85.1593 167.612 90.6817 173.576 93.2182 176.863L97.829 182.841L98.6905 179.219C99.1645 177.227 99.6545 170.711 99.7783 164.737C100.046 151.875 99.5616 150.936 88.1858 142.26C75.3753 132.49 60.7563 128.562 48.7624 131.671ZM442.499 131.765C436.387 133.676 425.799 139.798 418.262 145.78L411.984 150.761L412.534 163.713C412.837 170.837 413.538 177.82 414.092 179.231C415.053 181.679 415.385 181.418 421.341 173.504C430.215 161.712 442.305 152.646 449.156 152.646C454.833 152.646 462.933 165.127 464.201 175.826C465.583 187.495 459.76 202.188 450.152 211.275C443.867 217.219 434.065 222.402 430.163 221.844C428.123 221.554 428.596 220.971 433.339 217.935C442.612 211.997 448.43 201.962 450.148 188.943L450.923 183.071L445.952 188.216C440.519 193.838 432.904 197.878 424.413 199.643C416.132 201.364 415.572 202.092 414.37 212.682C413.218 222.823 410.28 231.94 406.696 236.497C404.572 239.197 404.505 239.812 405.716 245.671C406.429 249.125 409.418 257.83 412.358 265.016C417.435 277.427 420.752 288.425 420.787 292.961C420.8 294.813 420.491 294.73 417.808 292.161C416.162 290.583 414.481 289.292 414.072 289.292C413.664 289.292 413.318 292.535 413.304 296.498C413.268 306.322 409.293 322.386 406.898 322.386C406.456 322.386 405.779 320.705 405.394 318.65C404.409 313.406 403.06 314.003 402.35 319.996C401.457 327.534 397.764 336.472 393.597 341.178L389.913 345.338L390.485 340.001L391.058 334.663L388.409 337.765C386.953 339.472 384.953 343.435 383.967 346.571C382.981 349.708 381.747 352.537 381.228 352.858C380.708 353.179 379.565 351.859 378.689 349.925L377.097 346.406L377.866 351.744C378.289 354.679 378.635 361.766 378.635 367.491C378.635 373.216 378.801 377.9 379.004 377.9C379.207 377.899 380.648 376.998 382.207 375.895C383.765 374.793 390.084 371.379 396.249 368.308C402.414 365.237 408.987 361.575 410.856 360.17C416.846 355.667 417.14 357.392 411.615 364.63C409.497 367.405 408.517 369.385 409.435 369.033C410.353 368.68 415.205 367.418 420.217 366.228C434.941 362.731 445.714 356.269 451.577 347.418C456.442 340.073 456.051 338.88 449.818 342.039C444.01 344.982 433.259 348.007 428.61 348.007C425.56 348.007 425.61 347.91 432.038 341.322C442.157 330.951 451.689 313.162 452.056 303.964C452.207 300.179 452.784 299.425 458.849 295.097C462.496 292.496 466.956 288.575 468.761 286.384L472.045 282.4V287.313C472.045 290.016 471.346 294.208 470.491 296.63C468.436 302.456 470.064 302.215 474.294 296.065C479.501 288.498 481.839 281.295 482.458 270.913C483.131 259.607 481.567 250.938 477.023 240.788L473.646 233.246L473.098 243.388C472.638 251.874 471.995 254.706 469.151 260.735C467.282 264.698 465.551 267.941 465.306 267.941C465.059 267.941 463.779 264.98 462.458 261.361C459.086 252.111 452.493 245.381 441.787 240.263L433.298 236.204L443.865 231.064C466.824 219.894 481.58 197.779 481.637 174.458C481.667 162.311 476.212 150.216 468.268 144.819C464.146 142.019 464.423 140.939 469.287 140.828C471.097 140.787 473.54 140.377 474.714 139.917C476.543 139.2 476.007 138.653 470.977 136.095C459.883 130.453 451.009 129.103 442.499 131.765ZM188.432 163.162C182.02 165.379 176.421 169.377 172.996 174.187C170.517 177.669 171.263 177.516 176.868 173.394C186.771 166.11 199.25 163.274 212.453 165.307C216.954 166.001 221.794 166.874 223.206 167.248C224.975 167.717 225.543 167.552 225.029 166.722C224.619 166.058 221.131 164.541 217.277 163.35C208.385 160.604 196.069 160.523 188.432 163.162ZM294.298 163.122C290.775 164.17 286.932 165.627 285.758 166.361L283.623 167.693L285.758 167.149C305.675 162.064 320.378 164.327 335.399 174.791L338.068 176.65L335.29 172.922C333.677 170.757 329.528 167.657 325.402 165.531C319.293 162.384 317.057 161.824 309.499 161.542C303.338 161.312 298.784 161.786 294.298 163.122ZM206.062 173.395C204.656 176.481 205.499 179.335 207.816 179.335C210.32 179.335 212.223 174.476 210.522 172.428C208.617 170.131 207.432 170.389 206.062 173.395ZM288.01 173.181C279.016 181.216 287.632 189.015 302.864 186.627C313.084 185.025 316.418 181.059 312.386 175.303C310.302 172.327 307.643 172.224 307.643 175.118C307.643 179.089 304.581 183.605 301.887 183.605C298.135 183.605 294.102 179.865 293.312 175.655C292.396 170.774 291.285 170.256 288.01 173.181ZM299.109 173.446C297.388 177.973 297.749 179.524 300.437 179.143C302.392 178.864 302.839 178.123 302.839 175.153C302.839 170.66 300.564 169.619 299.109 173.446ZM194.4 174.982C189.191 180.192 190.76 184.102 199.138 186.795C203.972 188.348 213.023 187.466 216.682 185.087C220.386 182.677 221.599 178.546 219.53 175.388C217.321 172.016 216.373 172.464 213.45 178.267C211.39 182.356 210.552 183.071 207.827 183.071C205.02 183.071 204.294 182.384 201.955 177.515C200.488 174.459 198.889 171.937 198.404 171.91C197.918 171.883 196.117 173.266 194.4 174.982ZM186.476 190.783C185.302 191.071 183.741 191.795 183.006 192.391C180.438 194.477 181.707 195.084 185.675 193.668C187.878 192.882 191.508 192.218 193.745 192.192C196.174 192.165 197.545 191.715 197.151 191.078C196.482 189.994 190.37 189.826 186.476 190.783ZM308.176 190.939C304.096 191.634 304.238 191.702 311.379 192.491C315.489 192.945 320.053 193.593 321.521 193.931C324.002 194.502 324.069 194.418 322.469 192.729C320.494 190.646 314.385 189.881 308.176 190.939ZM202.489 193.479C191.944 194.908 186.922 196.669 184.966 199.623C183.351 202.063 183.373 202.14 185.408 201.282C186.583 200.788 188.985 200.186 190.746 199.945L193.949 199.506L190.28 202.743C188.261 204.522 186.843 206.213 187.129 206.498C187.415 206.785 194.832 204.644 203.61 201.743C222.02 195.658 227.727 195.222 237.718 199.142C239.828 199.97 239.829 199.952 237.81 197.654C233.418 192.651 220.161 191.085 202.489 193.479ZM277.218 193.631C267.163 196.794 264.711 200.164 274.226 197.74C281.571 195.869 290.754 197.047 306.427 201.872C318.073 205.457 319.738 205.624 316.45 202.881C313.078 200.068 313.453 199.242 317.784 199.945C319.839 200.279 321.521 200.38 321.521 200.172C321.521 199.963 319.96 198.853 318.051 197.704C310.018 192.868 286.955 190.569 277.218 193.631ZM227.276 216.449C206.702 227.779 188.098 250.031 182.232 270.325C177.642 286.207 178.286 308.204 183.824 324.755C187.289 335.109 192.684 344.805 194.98 344.805C195.719 344.805 199.391 343.418 203.143 341.724C206.893 340.029 213.613 337.836 218.074 336.849C225.204 335.271 227.531 335.216 237.29 336.396C251.051 338.058 252.474 338.05 264.649 336.264C276.64 334.505 284.356 335.626 298.167 341.133C303.23 343.152 308.114 344.805 309.02 344.805C311.08 344.805 316.13 338.471 319.658 331.46C329.653 311.605 330.63 282.663 322.037 260.991C314.625 242.299 298.582 225.086 279.65 215.516C272.48 211.892 268.566 211.549 267.641 214.466C266.914 216.757 259.062 224.312 255.334 226.307C253.067 227.52 252.372 227.066 245.695 220.021C241.734 215.843 237.603 212.436 236.507 212.446C235.411 212.454 231.257 214.256 227.276 216.449ZM231.377 221.109C222.558 228.047 226.941 237.291 243.704 247.101C247.457 249.298 250.882 251.643 251.313 252.312C251.745 252.982 252.105 257.682 252.114 262.757L252.13 271.984L247.711 270.991C233.078 267.703 218.882 260.416 210.202 251.736C207.372 248.906 204.839 246.59 204.573 246.59C204.308 246.59 204.091 247.921 204.091 249.549C204.091 257.808 226.299 272.847 248.021 279.298C252.003 280.48 253.575 281.567 254.445 283.743L255.595 286.623L256.978 283.377C258.101 280.737 259.525 279.764 264.586 278.176C278.427 273.833 295.748 262.877 300.97 255.162C303.251 251.791 304.193 245.632 302.663 244.101C302.272 243.71 300.615 245.732 298.979 248.594C294.334 256.73 284.214 263.735 270.245 268.487C265.947 269.948 261.297 271.144 259.909 271.144C257.42 271.144 257.392 271.018 257.694 261.384L258.002 251.625L264.941 247.442C279.236 238.825 284.104 230.578 278.838 223.898C274.492 218.386 272.874 218.288 270.076 223.375C268.276 226.647 266.101 228.65 262.258 230.577C257.67 232.877 256.887 233.735 256.595 236.779C256.159 241.322 253.421 241.014 251.734 236.235C250.956 234.029 248.642 231.571 245.205 229.296C242.278 227.358 238.915 224.23 237.732 222.345C236.55 220.459 235.287 218.898 234.927 218.876C234.566 218.852 232.968 219.858 231.377 221.109ZM329.003 256.919C336.921 270.266 340.737 285.667 340.737 304.284C340.737 330.445 332.319 350.446 316.85 361.041C301.865 371.304 282.985 376.568 257.468 377.6C224.993 378.913 199.461 371.699 183.595 356.732C171.116 344.96 166.368 331.194 166.41 306.907C166.441 288.997 168.512 279.725 175.648 265.539C178.233 260.402 179.964 256.198 179.495 256.198C179.026 256.198 175.455 259.681 171.557 263.938C163.207 273.061 157.771 283.388 155.402 294.63C153.426 304.007 153.9 326.251 156.305 336.954L157.778 343.515L154.74 347.096C149.821 352.892 143.242 362.72 141.053 367.543C136.77 376.977 139.204 394.854 145.368 399.244C147.432 400.714 148.742 402.958 149.583 406.461C151.38 413.955 152.377 415.23 154.374 412.589C155.951 410.501 155.984 410.5 156.017 412.536C156.04 413.991 156.956 413.191 159.071 409.867C160.732 407.257 162.871 404.48 163.824 403.698C165.342 402.452 165.766 402.776 167.246 406.319C170.941 415.163 184.472 430.079 195.864 437.867C203.927 443.379 217.658 449.924 227.043 452.729C236.436 455.538 258.728 456.63 270.278 454.848C281.791 453.072 297.765 447.312 307.875 441.29C318.46 434.985 334.337 419.695 340.143 410.214C342.383 406.557 344.599 403.802 345.067 404.091C345.535 404.38 346.499 406.375 347.208 408.525C348.345 411.967 348.655 412.22 349.806 410.646C351.638 408.14 352.48 408.417 352.48 411.526C352.48 416.342 354.551 414.322 356.469 407.635C357.64 403.555 359.018 400.895 360.118 400.598C362.669 399.909 367.642 388.23 367.175 384.022L366.792 380.567L365.476 383.77C364.752 385.532 363.844 387.693 363.457 388.574C363.072 389.455 362.422 386.813 362.012 382.703C361.603 378.592 360.911 373.669 360.477 371.76C359.444 367.235 360.322 367.377 363.65 372.275C367.161 377.441 367.278 374.387 363.887 366.146C361.796 361.064 358.612 356.259 350.068 345.297C348.271 342.991 348.282 342.502 350.334 333.971C353.374 321.325 354.073 306.717 352.14 296.231C349.132 279.916 344.645 271.275 332.628 258.647L325.726 251.394L329.003 256.919ZM221.705 349.715C214.56 351.54 208.361 353.754 208.361 354.482C208.361 355.861 219.175 359.492 228.621 361.283C239.837 363.412 261.834 363.446 273.827 361.355C283.542 359.661 294.832 355.934 294.832 354.422C294.832 353.924 292.309 352.646 289.227 351.581C283.609 349.642 271.033 349.094 255.867 350.126C252.344 350.366 243.697 350.249 236.651 349.867C229.605 349.484 222.879 349.416 221.705 349.715ZM143.203 371.76C140.049 376.868 139.598 379.71 141.151 384.666C143.343 391.657 144.308 391.664 144.308 384.687C144.308 381.14 144.981 375.999 145.805 373.264C147.543 367.492 146.286 366.765 143.203 371.76Z" fill="#EDA600"/>
</svg>
